<?xml version="1.0" encoding="iso-8859-1"?>
<!-- Generator: Adobe Illustrator 19.0.0, SVG Export Plug-In . SVG Version: 6.00 Build 0)  -->
<svg version="1.1" id="Capa_1" xmlns="http://www.w3.org/2000/svg" xmlns:xlink="http://www.w3.org/1999/xlink" x="0px" y="0px"
	 viewBox="0 0 386.4 386.4" style="enable-background:new 0 0 386.4 386.4;" xml:space="preserve">
<path style="fill:#FDF179;" d="M87.6,292c-4-0.4-7.6-2.4-10-5.6c-9.6-11.2-17.2-24-22.4-37.6c-6.4-16.4-10-31.2-9.6-41.6
	C46,200.4,48,196.8,52,196h134.4l-94,94C91.2,291.2,89.6,292,87.6,292z"/>
<path style="fill:#F6996A;" d="M193.2,377.2c-101.6,0-184-82-184.4-183.6C8.8,92,90.8,9.6,192.4,9.2s184,82,184.4,183.6
	c0,48.8-19.2,95.6-53.6,130.4S242,377.2,193.2,377.2z M177.6,40.4c-14.4,0.8-28.4,4-42,10C118.8,57.2,104,66,96,74
	c-3.6,3.2-6.4,7.2-7.6,12L88,88.4l-2.4,0.8c-4,1.2-7.2,3.2-10,6c-8,7.2-17.2,21.6-24,38S40,166.4,40,177.6c-0.4,4.8,0.8,9.6,3.2,14
	l1.2,2l-1.2,2c-2,3.6-2.8,7.6-2.8,11.2c-0.4,10.8,3.2,27.2,10,44s15.6,31.6,23.2,39.6c3.2,3.6,7.2,6.4,12,7.6l2.4,0.4l0.8,2.4
	c1.2,4,3.2,7.2,6,10c7.2,8,21.6,16.8,38,24S166,346,177.2,346c4.8,0.4,9.6-0.8,14-3.2l2-1.2l2,1.2c3.6,2,7.6,2.8,11.2,2.8h2
	c14.4-0.8,28.4-4,41.6-10c16.8-6.8,31.6-15.6,39.6-23.2c3.6-3.2,6.4-7.2,7.6-12l0.4-2.4l2.4-0.8c4-1.2,7.2-3.2,10-6
	c8-7.2,16.8-21.6,24-38s11.2-33.2,11.2-44.4c0.4-4.8-0.8-9.6-3.2-13.6l-1.2-2l1.2-2c2-3.6,2.8-7.6,2.8-11.2c0.4-10.8-3.2-27.2-10-44
	s-15.6-31.6-23.2-39.6c-3.2-3.6-7.2-6.4-12-7.6l-2.4-0.4l-0.8-2.4c-1.2-4-3.2-7.2-6-10c-7.2-8-21.6-16.8-38-24S219.2,40.8,208,40.8
	c-4.8-0.4-9.6,0.8-13.6,3.2l-1.2,0.8l-2-1.2c-3.6-2-7.6-2.8-11.2-2.8L177.6,40.4z"/>
<g>
	<path style="fill:#FDF179;" d="M332.8,190.4H199.6l94-94c1.2-1.2,2.8-2,4.8-2c4,0.4,7.6,2.4,10.4,5.6c9.6,11.2,17.2,24,22.4,37.6
		c6.4,16.4,10,31.6,9.6,41.6c-0.4,6.8-2.4,10.4-6.4,11.2H332.8L332.8,190.4z"/>
	<path style="fill:#FDF179;" d="M196,53.6c0-3.6,2.4-8,13.2-8c14.8,0.8,29.2,4.8,42.4,10.8c16,6.8,29.2,15.2,36,22.8
		c4.8,5.2,5.6,9.2,3.2,12.4l0,0l-0.8,0.8l-94,94.4V53.6z"/>
	<path style="fill:#FDF179;" d="M96.4,92.4c-2-2.4-2.8-5.6-1.2-8.4c1.2-2.4,2.8-4.8,4.8-6.8c11.2-9.6,24-17.2,37.6-22.4
		c12.4-5.6,26-8.8,39.6-9.6h2c6.8,0.4,10.4,2.4,11.2,6.4V186L96.4,92.4z"/>
	<path style="fill:#FDF179;" d="M177.2,340.8C162.4,340,148,336,134.8,330c-16-6.8-29.2-15.2-36-22.8c-4.8-5.2-5.6-9.2-3.2-12.4
		l0.4-0.4l94.4-94.4v133.2C190.4,336.4,188.4,340.8,177.2,340.8z"/>
	<path style="fill:#FDF179;" d="M208.8,340.8h-2c-6.8-0.4-10.4-2.4-11.2-6.4V199.6l94,94c2.4,2.4,4,7.2-4,14.8
		c-11.2,9.6-24,17.2-37.6,22.4C236,336.4,222.4,340,208.8,340.8L208.8,340.8z"/>
	<path style="fill:#FDF179;" d="M298.4,292c-1.6,0-2.8-0.4-4-1.2l-0.4-0.4L199.6,196h133.2c3.6,0,8,2.4,8,13.2
		C340,224,336,238.4,330,251.6c-6.8,16-15.2,29.2-22.8,36C305.2,290,302,291.6,298.4,292L298.4,292z"/>
	<path style="fill:#FDF179;" d="M53.6,190.4c-3.6,0-8-2.4-8-13.2c0.8-14.8,4.8-29.2,10.8-42.4c6.8-16,15.2-29.2,22.8-36
		c2.4-2.4,5.2-4,8.8-4.4c1.6,0,2.8,0.4,4,1.2l0,0l0.8,0.8l94.4,94L53.6,190.4L53.6,190.4z"/>
</g>
<g>
	<path style="fill:#2D1E10;" d="M287.2,89.6l0.4-0.4c1.2-1.6,0-4-2.8-7.2c-6.8-7.6-20-15.6-34.8-21.6c-14.8-6-30-10.4-40.8-10.4
		c-5.6,0-9.2,1.2-9.2,4v123.2L287.2,89.6z M332.8,186.4h0.8c2-0.4,2.8-3.2,2.8-7.2c0.4-10-3.2-25.2-9.2-40s-13.6-28.8-21.2-36.4
		c-4-4-7.2-5.6-9.2-4l-87.2,87.6H332.8z M296.8,287.2l0.4,0.4c1.6,1.2,4,0,7.2-2.8c7.6-6.8,15.6-20,21.6-34.8
		c6-14.8,10.4-30,10.4-40.8c0-5.6-1.2-9.2-4-9.2H209.6L296.8,287.2z M200,332.8c0,0.4,0,0.4,0,0.8c0.4,2,3.2,2.8,7.2,2.8
		c10,0.4,25.2-3.2,40-9.2c14.8-6,28.8-13.6,36.4-21.2c4-4,5.6-7.2,4-9.2L200,209.6V332.8z M99.2,296.8l-0.4,0.4
		c-1.2,1.6,0,4,2.8,7.2c6.8,7.6,20,15.6,34.8,21.6s30,10.4,40.8,10.4c5.6,0,9.2-1.2,9.2-4V209.6L99.2,296.8z M53.6,200h-0.8
		c-2,0.4-2.8,3.2-2.8,7.2c-0.4,10,3.6,25.2,9.2,40c5.6,14.8,13.6,28.8,21.2,36.4c4,4,7.2,5.6,9.2,4l87.6-87.6H53.6z M89.6,99.2
		l-0.4-0.4c-1.6-1.2-4,0-7.2,2.8c-7.6,6.8-15.6,20-21.6,34.8S50,166.4,50,177.2c0,5.6,1.2,9.2,4,9.2h123.2L89.6,99.2z M193.2,40
		c4.8-2.8,10.4-4,16-3.6c12.8,0,30,4.8,46,11.6s31.2,16,39.2,25.2c3.2,3.2,5.6,7.6,7.2,12c5.2,1.6,10,4.4,14,8.8
		c8.8,8.8,17.6,24.4,24.4,40.8s10.8,33.6,10,45.6c0,4.8-1.2,9.2-3.6,13.2c2.8,4.8,4,10.4,3.6,16c0,12.8-4.8,30-11.6,46
		s-16,31.2-25.2,39.2c-3.2,3.2-7.6,5.6-12,7.2c-1.6,5.2-4.4,10-8.8,14c-8.8,8.8-24.4,17.6-40.8,24.4s-33.6,10.8-45.6,10
		c-4.8,0-9.2-1.2-13.2-3.6c-4.8,2.8-10.4,4-16,3.6c-12.8,0-30-4.8-46-11.6s-31.2-16-39.2-25.2c-3.2-3.2-5.6-7.6-7.2-12
		c-5.2-1.6-10-4.4-14-8.8c-8.8-8.8-18-24.4-24.4-40.8s-10.8-33.6-10-45.6c0-4.8,1.2-9.2,3.6-13.2c-2.8-4.8-4-10.4-3.6-16
		c0-12.8,4.8-30,11.6-46S63.6,100,72.8,92c3.2-3.2,7.6-5.6,12-7.2c1.6-5.2,4.4-10,8.8-14c8.8-8.8,24.4-18,40.8-24.4
		s33.6-10.8,45.6-10C184.8,36.4,189.2,37.6,193.2,40z M186.4,177.2V53.6c0-0.4,0-0.4,0-0.8c-0.4-2-3.2-2.8-7.2-2.8
		c-10-0.4-25.2,3.6-40,9.2s-28.8,13.6-36.4,21.2c-4,4-5.6,7.2-4,9.2L186.4,177.2z"/>
	<path style="fill:#2D1E10;" d="M320.4,66C250-4.4,136-4,66,66.4s-70,184.4,0.4,254.4s184.4,70,254.4-0.4
		c33.6-33.6,52.4-79.6,52.4-127.2S354,99.6,320.4,66z M193.2,0C300,0,386.4,86.4,386.4,193.2S300,386.4,193.2,386.4S0,300,0,193.2
		C0,142,20.4,92.8,56.8,56.4C92.8,20.4,142,0,193.2,0z"/>
</g>
<g>
</g>
<g>
</g>
<g>
</g>
<g>
</g>
<g>
</g>
<g>
</g>
<g>
</g>
<g>
</g>
<g>
</g>
<g>
</g>
<g>
</g>
<g>
</g>
<g>
</g>
<g>
</g>
<g>
</g>
</svg>
